<svg width="16" height="16" viewBox="0 0 16 16" fill="none" xmlns="http://www.w3.org/2000/svg">
<path d="M8.94282 8.00001L15.8048 1.13807C16.0651 0.877727 16.0651 0.455602 15.8048 0.195258C15.5444 -0.0650859 15.1223 -0.0650859 14.8619 0.195258L8.00001 7.0572L1.13807 0.195258C0.877727 -0.0650859 0.455602 -0.0650859 0.195258 0.195258C-0.0650859 0.455602 -0.0650859 0.877727 0.195258 1.13807L7.0572 8.00001L0.195258 14.8619C-0.0650859 15.1223 -0.0650859 15.5444 0.195258 15.8048C0.455602 16.0651 0.877727 16.0651 1.13807 15.8048L8.00001 8.94282L14.8619 15.8048C15.1223 16.0651 15.5444 16.0651 15.8048 15.8048C16.0651 15.5444 16.0651 15.1223 15.8048 14.8619L8.94282 8.00001Z" fill="black"/>
</svg>
