<svg width="16" height="16" viewBox="0 0 16 16" fill="black" xmlns="http://www.w3.org/2000/svg">
<path d="M7.99999 0C4.42719 0 1.52054 2.90665 1.52054 6.47945C1.52054 7.95369 2.00366 9.34209 2.91771 10.4946C4.10122 11.9868 7.5429 15.5299 7.68881 15.6799L7.99994 16L8.31112 15.68C8.45712 15.5298 11.8998 11.986 13.0835 10.4933C13.9967 9.3417 14.4794 7.95378 14.4794 6.47945C14.4794 2.90665 11.5728 0 7.99999 0ZM12.4034 9.95394C11.4505 11.1556 8.8915 13.8286 7.99999 14.7531C7.10856 13.8286 4.55045 11.1564 3.59778 9.9552C2.80669 8.9577 2.38853 7.75583 2.38853 6.47945C2.38853 3.38526 4.9058 0.867994 7.99999 0.867994C11.0941 0.867994 13.6114 3.38526 13.6114 6.47945C13.6114 7.75592 13.1937 8.9574 12.4034 9.95394Z"/>
<path d="M7.99999 2.57208C5.88512 2.57208 4.16458 4.29262 4.16458 6.40749C4.16458 8.52236 5.88516 10.2429 7.99999 10.2429C10.1148 10.2429 11.8354 8.52231 11.8354 6.40749C11.8354 4.29266 10.1149 2.57208 7.99999 2.57208ZM7.99999 9.3749C6.36373 9.3749 5.03258 8.0437 5.03258 6.40749C5.03258 4.77123 6.36377 3.44008 7.99999 3.44008C9.6362 3.44008 10.9674 4.77128 10.9674 6.40749C10.9674 8.04375 9.63624 9.3749 7.99999 9.3749Z"/>
</svg>
